<svg width="60" height="60" viewBox="0 0 60 60" fill="none" xmlns="http://www.w3.org/2000/svg">
<circle cx="30" cy="30" r="30" fill="#40444D"/>
<path d="M24.4114 48.0257C23.0453 47.6152 21.7735 46.9395 20.6686 46.0372C19.1314 44.78 18.0172 43.1829 17.36 41.4372C17.1427 40.8605 17.0759 40.238 17.1657 39.6283C17.2556 39.0187 17.4993 38.442 17.8738 37.9526C18.2483 37.4632 18.7412 37.0772 19.3062 36.8311C19.8711 36.5849 20.4895 36.4867 21.1029 36.5457C20.5772 36.4257 20.0743 36.1857 19.6286 35.8229C18.0743 34.5572 17.9543 31.6743 19.22 30.12C20.305 28.784 21.6921 27.7251 23.2669 27.0306C24.8417 26.3361 26.559 26.026 28.2772 26.1257L24.5057 17.4771C24.291 16.9857 24.1763 16.4563 24.1681 15.9201C24.16 15.3838 24.2586 14.8512 24.4583 14.3534C24.658 13.8557 24.9548 13.4026 25.3313 13.0206C25.7078 12.6386 26.1566 12.3354 26.6514 12.1286C27.4732 11.7753 28.3922 11.7187 29.2512 11.9684C30.1101 12.218 30.8556 12.7584 31.36 13.4971C34.1914 17.7314 39.4 26.32 39.7229 32.64C40.1714 41.3543 39.7229 48.0257 39.7229 48.0257" stroke="white" stroke-width="2.14286" stroke-linecap="round" stroke-linejoin="round"/>
<path d="M29.5429 34.6857C29.9725 35.0383 30.3155 35.4849 30.5452 35.991C30.7749 36.4972 30.8853 37.0493 30.8678 37.6049C30.8504 38.1604 30.7055 38.7045 30.4444 39.1952C30.1833 39.6859 29.813 40.1101 29.362 40.4349C28.911 40.7598 28.3914 40.9768 27.8433 41.069C27.2952 41.1613 26.7332 41.1264 26.2007 40.967C25.6682 40.8076 25.1794 40.5281 24.7721 40.1499C24.3648 39.7717 24.0498 39.305 23.8514 38.7857C23.6404 38.2257 23.2942 37.7265 22.8435 37.3327C22.3929 36.9389 21.8518 36.6626 21.2686 36.5286C21.8644 36.5863 22.4653 36.4958 23.0177 36.265C23.57 36.0341 24.0567 35.6703 24.4343 35.2057C24.7354 34.8363 25.1063 34.5298 25.5258 34.3037C25.9453 34.0776 26.4053 33.9364 26.8794 33.8881C27.3535 33.8398 27.8325 33.8854 28.289 34.0223C28.7456 34.1591 29.1735 34.3846 29.5429 34.6857Z" stroke="white" stroke-width="2.14286" stroke-linecap="round" stroke-linejoin="round"/>
<path d="M28.2515 26.1314C28.9829 26.2172 30.72 26.54 31.8229 27.14M39.8857 35.7114C42.4429 29.9943 42.3286 20.6029 42.0572 15.74C41.9976 14.8484 41.6303 14.0051 41.018 13.3542C40.4057 12.7034 39.5864 12.2853 38.7 12.1714C38.1689 12.0973 37.6283 12.1295 37.1097 12.2663C36.5911 12.4032 36.1049 12.6418 35.6795 12.9683C35.254 13.2948 34.8978 13.7028 34.6316 14.1683C34.3653 14.6339 34.1943 15.1477 34.1286 15.68V17.9629" stroke="white" stroke-width="2.14286" stroke-linecap="round" stroke-linejoin="round"/>
</svg>
