<svg width="30" height="30" viewBox="0 0 30 30" fill="none" xmlns="http://www.w3.org/2000/svg">
<path d="M29.6985 7.7475L26.136 5.0025C25.8939 4.84714 25.6307 4.72742 25.3545 4.647C25.0796 4.55726 24.7931 4.50775 24.504 4.5H14.25L15.4515 12H24.504C24.75 12 25.0575 11.9445 25.353 11.853C25.6485 11.7615 25.9335 11.6355 26.1345 11.499L29.697 8.751C29.8995 8.6145 30 8.433 30 8.25C30 8.067 29.8995 7.8855 29.6985 7.7475ZM12.75 1.5H11.25C11.0511 1.5 10.8603 1.57902 10.7197 1.71967C10.579 1.86032 10.5 2.05109 10.5 2.25V7.5H5.496C5.247 7.5 4.941 7.5555 4.6455 7.6485C4.3485 7.7385 4.065 7.863 3.864 8.0025L0.3015 10.7475C0.099 10.884 0 11.067 0 11.25C0 11.4315 0.099 11.613 0.3015 11.7525L3.864 14.5005C4.065 14.637 4.3485 14.763 4.6455 14.853C4.941 14.9445 5.247 15 5.496 15H10.5V27.75C10.5 27.9489 10.579 28.1397 10.7197 28.2803C10.8603 28.421 11.0511 28.5 11.25 28.5H12.75C12.9489 28.5 13.1397 28.421 13.2803 28.2803C13.421 28.1397 13.5 27.9489 13.5 27.75V2.25C13.5 2.05109 13.421 1.86032 13.2803 1.71967C13.1397 1.57902 12.9489 1.5 12.75 1.5Z" fill="#202226"/>
</svg>
