<svg width="70" height="70" viewBox="0 0 70 70" fill="none" xmlns="http://www.w3.org/2000/svg">
<path d="M24.355 8.74993C27.7967 8.2541 31.4425 12.0166 32.4925 17.2083C33.5425 22.3708 31.6467 26.9791 28.205 27.5041C24.7925 28.0291 21.1175 24.2666 20.0384 19.0749C18.9592 13.9124 20.9134 9.3041 24.355 8.74993ZM45.2092 8.74993C48.68 9.3041 50.605 13.9124 49.5842 19.0749C48.4759 24.2666 44.83 28.0291 41.3884 27.5041C37.9175 26.9791 36.0217 22.3708 37.1009 17.2083C38.1509 12.0166 41.7967 8.2541 45.2092 8.74993ZM8.75087 22.1666C12.0759 20.7374 16.5967 23.3333 18.9592 27.8541C21.1759 32.4624 20.4175 37.3041 17.1217 38.7333C13.8259 40.1624 9.3342 37.5958 7.03003 33.0166C4.72587 28.4374 5.54253 23.5666 8.75087 22.1666ZM61.2509 22.1666C64.4592 23.5666 65.2759 28.4374 62.9717 33.0166C60.6675 37.5958 56.1759 40.1624 52.88 38.7333C49.5842 37.3041 48.8259 32.4624 51.0425 27.8541C53.405 23.3333 57.9259 20.7374 61.2509 22.1666ZM56.38 53.6083C56.4967 56.3499 54.3967 59.3833 51.8884 60.5208C46.6675 62.9124 40.4842 57.9541 34.68 57.9541C28.8759 57.9541 22.6342 63.1166 17.5009 60.5208C14.5842 59.0916 12.5717 55.2999 12.9509 52.1499C13.4759 47.8041 18.6967 45.4708 21.7884 42.2916C25.9009 38.1791 28.8175 30.4499 34.68 30.4499C40.5134 30.4499 43.605 38.0624 47.5425 42.2916C50.78 45.8499 56.1759 48.8541 56.38 53.6083Z" fill="#EAB25D"/>
</svg>
