<svg width="26" height="26" viewBox="0 0 26 26" fill="none" xmlns="http://www.w3.org/2000/svg">
<path d="M24.96 10.6429C24.3072 11.3924 23.4084 11.8838 22.4256 12.0286C21.4427 12.1734 20.4405 11.9621 19.5996 11.4327C19.5959 11.4312 19.5918 11.4312 19.588 11.4327L11.4238 19.6044V19.6137C11.7546 20.1469 11.9612 20.7479 12.0282 21.3719C12.0953 21.996 12.0211 22.6271 11.8111 23.2186C11.6012 23.81 11.2609 24.3466 10.8154 24.7884C10.37 25.2303 9.83089 25.5661 9.23808 25.771C8.64526 25.9759 8.01396 26.0445 7.391 25.9719C6.76804 25.8993 6.16941 25.6873 5.63952 25.3515C5.10962 25.0158 4.66206 24.5649 4.33002 24.0325C3.99799 23.5 3.79 22.8995 3.7215 22.2756C3.09808 22.2071 2.49808 21.9989 1.96602 21.6666C1.43395 21.3343 0.983468 20.8864 0.64798 20.3561C0.312493 19.8258 0.100612 19.2267 0.0280539 18.6033C-0.0445042 17.9798 0.0241225 17.348 0.228844 16.7548C0.433565 16.1615 0.769127 15.6219 1.21064 15.1762C1.65215 14.7304 2.18828 14.3898 2.77927 14.1797C3.37025 13.9696 4.00092 13.8953 4.6245 13.9624C5.24807 14.0295 5.84855 14.2363 6.38139 14.5673C6.38513 14.5688 6.38926 14.5688 6.39299 14.5673L14.5572 6.39563V6.38634C14.2264 5.85309 14.0198 5.25214 13.9528 4.62808C13.8857 4.00402 13.9599 3.37287 14.1699 2.78142C14.3798 2.18998 14.7201 1.65343 15.1656 1.21158C15.611 0.769724 16.1501 0.433901 16.7429 0.229021C17.3358 0.0241414 17.9671 -0.0445387 18.59 0.0280757C19.213 0.10069 19.8116 0.312736 20.3415 0.648483C20.8714 0.984231 21.319 1.43506 21.651 1.96754C21.983 2.50002 22.191 3.10048 22.2595 3.72438C23.0215 3.80466 23.7468 4.09309 24.356 4.55814C24.9652 5.02319 25.4348 5.64694 25.7136 6.36118C25.9924 7.07541 26.0696 7.85261 25.9367 8.60778C25.8037 9.36295 25.4659 10.067 24.96 10.6429Z" fill="#40444D"/>
</svg>
