<svg width="30" height="30" viewBox="0 0 30 30" fill="none" xmlns="http://www.w3.org/2000/svg">
<path d="M26.209 3.46055C25.7808 3.28337 25.3096 3.23712 24.8551 3.32764C24.4006 3.41817 23.9831 3.64141 23.6555 3.96914C23.632 3.99258 23.6098 4.01602 23.5887 4.04063L21.8309 6.06797C19.76 4.85626 17.404 4.21761 15.0047 4.21761C12.6054 4.21761 10.2494 4.85626 8.17853 6.06797L6.42072 4.04063C6.39962 4.01602 6.37736 3.99258 6.35392 3.96914C6.02672 3.6383 5.60844 3.41234 5.15237 3.32005C4.6963 3.22776 4.22308 3.27331 3.79299 3.4509C3.36289 3.62849 2.9954 3.93009 2.73731 4.31727C2.47922 4.70445 2.34222 5.15969 2.34376 5.625V15.9375C2.34376 22.3992 8.0215 27.6562 15 27.6562C21.9785 27.6562 27.6563 22.3992 27.6563 15.9375V5.625C27.6561 5.16155 27.5184 4.70857 27.2608 4.32331C27.0032 3.93805 26.6372 3.63782 26.209 3.46055ZM24.8438 15.9375C24.8438 20.4164 21.1699 24.1324 16.4063 24.7512V23.0859L17.8699 21.6223C18.1341 21.3581 18.2825 20.9998 18.2825 20.6262C18.2825 20.2526 18.1341 19.8943 17.8699 19.6301C17.6058 19.3659 17.2474 19.2175 16.8738 19.2175C16.5002 19.2175 16.1419 19.3659 15.8777 19.6301L15 20.5078L14.1199 19.6266C13.8558 19.3624 13.4974 19.214 13.1238 19.214C12.7502 19.214 12.3919 19.3624 12.1277 19.6266C11.8636 19.8907 11.7152 20.249 11.7152 20.6227C11.7152 20.9963 11.8636 21.3546 12.1277 21.6187L13.5938 23.0859V24.7547C8.83009 24.1359 5.15626 20.4187 5.15626 15.941V6.88359L6.86017 8.84414C7.09261 9.11146 7.41739 9.28121 7.76956 9.31945C8.12174 9.35769 8.47538 9.2616 8.75978 9.05039C9.52237 8.48663 10.3607 8.03333 11.25 7.70391V10.3125C11.25 10.6855 11.3982 11.0431 11.6619 11.3069C11.9256 11.5706 12.2833 11.7187 12.6563 11.7187C13.0292 11.7187 13.3869 11.5706 13.6506 11.3069C13.9144 11.0431 14.0625 10.6855 14.0625 10.3125V7.07227C14.375 7.04492 14.6875 7.03125 15 7.03125C15.3125 7.03125 15.625 7.04492 15.9375 7.07227V10.3125C15.9375 10.6855 16.0857 11.0431 16.3494 11.3069C16.6131 11.5706 16.9708 11.7187 17.3438 11.7187C17.7167 11.7187 18.0744 11.5706 18.3381 11.3069C18.6019 11.0431 18.75 10.6855 18.75 10.3125V7.70391C19.6392 8.03362 20.4775 8.4869 21.2402 9.05039C21.5246 9.2616 21.8783 9.35769 22.2305 9.31945C22.5826 9.28121 22.9074 9.11146 23.1399 8.84414L24.8438 6.88359V15.9375ZM11.7188 16.4062C11.7188 16.7771 11.6088 17.1396 11.4028 17.4479C11.1967 17.7563 10.9039 17.9966 10.5613 18.1385C10.2187 18.2804 9.84168 18.3176 9.47797 18.2452C9.11425 18.1729 8.78016 17.9943 8.51794 17.7321C8.25572 17.4699 8.07714 17.1358 8.00479 16.772C7.93244 16.4083 7.96957 16.0313 8.11149 15.6887C8.2534 15.3461 8.49373 15.0533 8.80207 14.8472C9.11041 14.6412 9.47292 14.5312 9.84376 14.5312C10.341 14.5312 10.818 14.7288 11.1696 15.0804C11.5212 15.4321 11.7188 15.909 11.7188 16.4062ZM22.0313 16.4062C22.0313 16.7771 21.9213 17.1396 21.7153 17.4479C21.5092 17.7563 21.2164 17.9966 20.8738 18.1385C20.5312 18.2804 20.1542 18.3176 19.7905 18.2452C19.4268 18.1729 19.0927 17.9943 18.8304 17.7321C18.5682 17.4699 18.3896 17.1358 18.3173 16.772C18.2449 16.4083 18.2821 16.0313 18.424 15.6887C18.5659 15.3461 18.8062 15.0533 19.1146 14.8472C19.4229 14.6412 19.7854 14.5312 20.1563 14.5312C20.6535 14.5312 21.1305 14.7288 21.4821 15.0804C21.8337 15.4321 22.0313 15.909 22.0313 16.4062Z" fill="#40444D"/>
</svg>
