<svg width="50" height="50" viewBox="0 0 50 50" fill="none" xmlns="http://www.w3.org/2000/svg">
<path d="M18.2292 3.64587C19.6562 3.64587 20.9656 4.17921 21.9187 5.16462C22.8719 6.15108 23.4375 7.55942 23.4375 9.25837C23.4375 10.949 22.8792 12.6459 21.9688 13.9303C21.0625 15.2084 19.75 16.1459 18.2292 16.1459C16.7083 16.1459 15.3958 15.2084 14.4896 13.9303C13.5792 12.6459 13.0208 10.949 13.0208 9.25942C13.0208 7.55942 13.5865 6.15108 14.5406 5.16462C15.4927 4.17921 16.8021 3.64587 18.2292 3.64587ZM6.77083 13.0209C8.19792 13.0209 9.50729 13.5542 10.4604 14.5396C11.4135 15.5261 11.9792 16.9344 11.9792 18.6334C11.9792 20.324 11.4208 22.0209 10.5104 23.3053C9.60417 24.5834 8.29167 25.5209 6.77083 25.5209C5.25 25.5209 3.9375 24.5834 3.03125 23.3053C2.12083 22.0209 1.5625 20.323 1.5625 18.6344C1.5625 16.9344 2.12813 15.5261 3.08229 14.5396C4.03437 13.5542 5.34375 13.0209 6.77083 13.0209ZM25 20.3125C17.5792 20.3125 11.4312 26.6302 9.49583 34.5521C8.6375 38.0667 9.94687 41.8365 13.176 43.623C15.7417 45.0438 19.5812 46.3542 24.999 46.3542C30.4177 46.3542 34.2573 45.0438 36.824 43.623C40.0521 41.8365 41.3615 38.0667 40.5031 34.5532C38.5687 26.6303 32.4198 20.3125 25 20.3125ZM43.2292 13.0209C41.8021 13.0209 40.4927 13.5542 39.5406 14.5396C38.5865 15.5261 38.0208 16.9344 38.0208 18.6334C38.0208 20.324 38.5792 22.0209 39.4896 23.3053C40.3958 24.5834 41.7083 25.5209 43.2292 25.5209C44.75 25.5209 46.0625 24.5834 46.9688 23.3053C47.8792 22.0209 48.4375 20.324 48.4375 18.6344C48.4375 16.9344 47.8719 15.5261 46.9187 14.5396C45.9656 13.5542 44.6562 13.0209 43.2292 13.0209ZM31.7708 3.64587C30.3437 3.64587 29.0344 4.17921 28.0823 5.16462C27.1281 6.15108 26.5625 7.55942 26.5625 9.25837C26.5625 10.949 27.1208 12.6459 28.0312 13.9303C28.9375 15.2084 30.25 16.1459 31.7708 16.1459C33.2917 16.1459 34.6042 15.2084 35.5104 13.9303C36.4208 12.6459 36.9792 10.949 36.9792 9.25942C36.9792 7.55942 36.4135 6.15108 35.4604 5.16462C34.5073 4.17921 33.1979 3.64587 31.7708 3.64587Z" fill="#BB6318"/>
</svg>
