<svg width="30" height="29" viewBox="0 0 30 29" fill="none" xmlns="http://www.w3.org/2000/svg">
<path fill-rule="evenodd" clip-rule="evenodd" d="M10.5171 3.30643L8.76429 9.18214C8.76429 9.18214 7.48286 13.6093 6.95357 17.9379C6.87861 18.6763 6.83856 19.4178 6.83357 20.16C6.83357 23.01 7.74857 24.3686 8.97214 25.1229C10.3436 25.9714 12.3793 26.25 15 26.25C17.6186 26.25 19.6586 25.9714 21.0279 25.1229C22.2514 24.3664 23.1664 23.01 23.1664 20.16C23.1664 19.4529 23.1236 18.7029 23.0443 17.9357C22.5171 13.6071 21.2357 9.18214 21.2357 9.18214L19.4829 3.30643C18.0209 2.90934 16.5148 2.69838 15 2.67857C13.7143 2.67857 12.0921 2.88 10.5171 3.30643ZM25.845 20.16C25.845 19.5714 25.8207 18.9736 25.7721 18.3664L25.7636 18.2614L25.9564 18.2207C27.4714 17.8821 28.5814 17.1043 29.2521 15.9879C29.4607 15.643 29.6242 15.2729 29.7386 14.8864C30.1329 13.6007 30.0386 12.1736 29.7386 10.8621C29.3646 9.32085 28.7645 7.84341 27.9579 6.47786C27.1971 5.16857 26.28 3.98143 25.3671 3.21643C23.9786 2.04857 22.1186 1.25571 20.3014 0.75C18.5735 0.274824 16.7919 0.0227754 15 0C13.208 0.0234738 11.4264 0.276242 9.69857 0.752143C7.88143 1.25571 6.02143 2.04857 4.63286 3.21643C3.72 3.98143 2.80286 5.16643 2.04214 6.47786C1.23624 7.84354 0.636887 9.32097 0.263571 10.8621C0.0964248 11.5695 0.0080302 12.2932 0 13.02C0 13.8493 0.130714 14.6721 0.460714 15.4286C1.09714 16.8964 2.37643 17.8993 4.23643 18.2614V18.2657L4.22786 18.3621V18.3664C4.17929 18.9736 4.155 19.5714 4.155 20.16C4.155 23.6786 5.35286 26.0357 7.56214 27.4029C9.62357 28.6757 12.3386 28.9286 15 28.9286C17.6614 28.9286 20.3764 28.6757 22.4357 27.4029C24.6471 26.0357 25.845 23.6786 25.845 20.16ZM11.3079 11.4107C12.0471 11.4107 12.6471 12.0107 12.6471 12.75V13.8C12.6471 14.1552 12.506 14.4959 12.2549 14.747C12.0037 14.9982 11.6631 15.1393 11.3079 15.1393C10.9527 15.1393 10.612 14.9982 10.3608 14.747C10.1097 14.4959 9.96857 14.1552 9.96857 13.8V12.75C9.96857 12.0107 10.5686 11.4107 11.3079 11.4107ZM18.6943 11.4107C19.4336 11.4107 20.0336 12.0107 20.0336 12.75V13.8C20.0336 14.1552 19.8925 14.4959 19.6413 14.747C19.3901 14.9982 19.0495 15.1393 18.6943 15.1393C18.3391 15.1393 17.9984 14.9982 17.7473 14.747C17.4961 14.4959 17.355 14.1552 17.355 13.8V12.75C17.355 12.0107 17.955 11.4107 18.6943 11.4107ZM12.4929 20.1643C12.885 21.06 13.6843 21.7436 14.1386 22.0436C14.655 22.3864 15.345 22.3864 15.8614 22.0436C16.3157 21.7436 17.1171 21.0579 17.5071 20.1643C17.5997 19.9506 17.6389 19.7176 17.6214 19.4854C17.6038 19.2532 17.53 19.0288 17.4064 18.8314C17.2146 18.5295 16.9213 18.3061 16.5793 18.2014C16.23 18.0943 15.6707 17.9786 15 17.9786C14.3293 17.9786 13.77 18.0943 13.4207 18.2014C13.0787 18.3061 12.7854 18.5295 12.5936 18.8314C12.47 19.0288 12.3962 19.2532 12.3786 19.4854C12.3611 19.7176 12.4003 19.9506 12.4929 20.1643Z" fill="#40444D"/>
</svg>
