<svg width="40" height="40" viewBox="0 0 40 40" fill="none" xmlns="http://www.w3.org/2000/svg">
<path d="M21.0567 15.1417C20.3784 16.6217 20 18.2667 20 20C20 21.7333 20.3784 23.3783 21.0567 24.8583C16.4934 24.2783 13.3334 22.025 13.3334 20C13.3334 17.975 16.4934 15.7217 21.0567 15.1417ZM11.6667 15.9617C9.91335 13.9883 6.91502 12.505 3.33335 11.9283V28.07C6.91502 27.495 9.91335 26.0117 11.6667 24.0367C13.9417 26.6 18.3134 28.3333 23.3334 28.3333C30.6967 28.3333 36.6667 24.6017 36.6667 20C36.6667 15.3983 30.6967 11.6667 23.3334 11.6667C18.3134 11.6667 13.9417 13.4 11.6667 15.9617ZM6.66669 23.3333V16.6667C8.58335 17.05 10 18.3967 10 20C10 21.6033 8.58335 22.95 6.66669 23.3333ZM33.3334 20C33.3334 22.1167 29.8717 24.4933 24.9467 24.93C23.895 23.5018 23.3294 21.7737 23.3334 20C23.3294 18.2263 23.895 16.4982 24.9467 15.07C29.8717 15.5067 33.3334 17.8833 33.3334 20ZM28.3334 21.6667C28.7754 21.6667 29.1993 21.4911 29.5119 21.1785C29.8244 20.8659 30 20.442 30 20C30 19.558 29.8244 19.134 29.5119 18.8215C29.1993 18.5089 28.7754 18.3333 28.3334 18.3333C27.8913 18.3333 27.4674 18.5089 27.1548 18.8215C26.8423 19.134 26.6667 19.558 26.6667 20C26.6667 20.442 26.8423 20.8659 27.1548 21.1785C27.4674 21.4911 27.8913 21.6667 28.3334 21.6667Z" fill="#40444D"/>
</svg>
