<svg width="60" height="60" viewBox="0 0 60 60" fill="none" xmlns="http://www.w3.org/2000/svg">
<circle cx="30" cy="30" r="30" fill="#40444D"/>
<path d="M30.0081 43.8965L29.8081 44.1144L29.5881 43.8965C20.0881 34.5014 13.8081 28.2888 13.8081 21.9891C13.8081 17.6294 16.8081 14.3597 20.8081 14.3597C23.8881 14.3597 26.8881 16.5395 27.9481 19.5041H31.6681C32.7281 16.5395 35.7281 14.3597 38.8081 14.3597C42.8081 14.3597 45.8081 17.6294 45.8081 21.9891C45.8081 28.2888 39.5281 34.5014 30.0081 43.8965ZM38.8081 10C35.3281 10 31.9881 11.7657 29.8081 14.5341C27.6281 11.7657 24.2881 10 20.8081 10C14.6481 10 9.80811 15.2534 9.80811 21.9891C9.80811 30.2071 16.6081 36.9428 26.9081 47.1226L29.8081 50L32.7081 47.1226C43.0081 36.9428 49.8081 30.2071 49.8081 21.9891C49.8081 15.2534 44.9681 10 38.8081 10Z" fill="white"/>
</svg>
