<svg width="28" height="28" viewBox="0 0 28 28" fill="none" xmlns="http://www.w3.org/2000/svg">
<path d="M8.88435 2.27808H18.452C22.0969 2.27808 25.0583 5.23951 25.0583 8.88435V18.452C25.0583 20.2041 24.3623 21.8845 23.1234 23.1234C21.8845 24.3623 20.2041 25.0583 18.452 25.0583H8.88435C5.23951 25.0583 2.27808 22.0969 2.27808 18.452V8.88435C2.27808 7.13225 2.97409 5.45192 4.21301 4.21301C5.45192 2.97409 7.13225 2.27808 8.88435 2.27808ZM8.65654 4.5561C7.56904 4.5561 6.52607 4.98811 5.75709 5.75709C4.98811 6.52607 4.5561 7.56904 4.5561 8.65654V18.6798C4.5561 20.9465 6.38991 22.7803 8.65654 22.7803H18.6798C19.7674 22.7803 20.8103 22.3483 21.5793 21.5793C22.3483 20.8103 22.7803 19.7674 22.7803 18.6798V8.65654C22.7803 6.38991 20.9465 4.5561 18.6798 4.5561H8.65654ZM19.648 6.26462C20.0256 6.26462 20.3878 6.41462 20.6548 6.68163C20.9218 6.94864 21.0718 7.31078 21.0718 7.68838C21.0718 8.06599 20.9218 8.42813 20.6548 8.69514C20.3878 8.96215 20.0256 9.11215 19.648 9.11215C19.2704 9.11215 18.9083 8.96215 18.6413 8.69514C18.3742 8.42813 18.2242 8.06599 18.2242 7.68838C18.2242 7.31078 18.3742 6.94864 18.6413 6.68163C18.9083 6.41462 19.2704 6.26462 19.648 6.26462ZM13.6682 7.97314C15.1786 7.97314 16.6272 8.57315 17.6952 9.64118C18.7632 10.7092 19.3633 12.1578 19.3633 13.6682C19.3633 15.1786 18.7632 16.6272 17.6952 17.6952C16.6272 18.7632 15.1786 19.3633 13.6682 19.3633C12.1578 19.3633 10.7092 18.7632 9.64118 17.6952C8.57315 16.6272 7.97314 15.1786 7.97314 13.6682C7.97314 12.1578 8.57315 10.7092 9.64118 9.64118C10.7092 8.57315 12.1578 7.97314 13.6682 7.97314ZM13.6682 10.2512C12.7619 10.2512 11.8928 10.6112 11.252 11.252C10.6112 11.8928 10.2512 12.7619 10.2512 13.6682C10.2512 14.5745 10.6112 15.4436 11.252 16.0844C11.8928 16.7252 12.7619 17.0852 13.6682 17.0852C14.5745 17.0852 15.4436 16.7252 16.0844 16.0844C16.7252 15.4436 17.0852 14.5745 17.0852 13.6682C17.0852 12.7619 16.7252 11.8928 16.0844 11.252C15.4436 10.6112 14.5745 10.2512 13.6682 10.2512Z" fill="#202226"/>
</svg>
