<svg width="570" height="6" viewBox="0 0 570 6" fill="none" xmlns="http://www.w3.org/2000/svg">
<path d="M0.000325441 2.66675C0.000325441 4.13951 1.19423 5.33341 2.66699 5.33341C4.13975 5.33341 5.33366 4.13951 5.33366 2.66675C5.33366 1.19399 4.13975 8.13007e-05 2.66699 8.13007e-05C1.19423 8.13007e-05 0.000325441 1.19399 0.000325441 2.66675ZM564 2.66675C564 4.13951 565.194 5.33341 566.667 5.33341C568.14 5.33341 569.334 4.13951 569.334 2.66675C569.334 1.19399 568.14 8.13007e-05 566.667 8.13007e-05C565.194 8.13007e-05 564 1.19399 564 2.66675ZM2.66699 2.66675V3.16675H566.667V2.66675V2.16675H2.66699V2.66675Z" fill="black"/>
</svg>
