<svg width="50" height="50" viewBox="0 0 50 50" fill="none" xmlns="http://www.w3.org/2000/svg">
<path d="M17.5807 6.03197C20.0882 5.67072 22.7445 8.41197 23.5095 12.1945C24.2745 15.9557 22.8932 19.3132 20.3857 19.6957C17.8995 20.0782 15.222 17.337 14.4357 13.5545C13.6495 9.79322 15.0732 6.43572 17.5807 6.03197ZM32.7745 6.03197C35.3032 6.43572 36.7057 9.79322 35.962 13.5545C35.1545 17.337 32.4982 20.0782 29.9907 19.6957C27.462 19.3132 26.0807 15.9557 26.867 12.1945C27.632 8.41197 30.2882 5.67072 32.7745 6.03197ZM6.21196 15.807C8.63446 14.7657 11.9282 16.657 13.6495 19.9507C15.2645 23.3082 14.712 26.8357 12.3107 27.877C9.90946 28.9182 6.63696 27.0482 4.95821 23.712C3.27946 20.3757 3.87446 16.827 6.21196 15.807ZM44.462 15.807C46.7995 16.827 47.3945 20.3757 45.7157 23.712C44.037 27.0482 40.7645 28.9182 38.3632 27.877C35.962 26.8357 35.4095 23.3082 37.0245 19.9507C38.7457 16.657 42.0395 14.7657 44.462 15.807ZM40.9132 38.7145C40.9982 40.712 39.4682 42.922 37.6407 43.7507C33.837 45.4932 29.332 41.8807 25.1032 41.8807C20.8745 41.8807 16.327 45.642 12.587 43.7507C10.462 42.7095 8.99571 39.947 9.27196 37.652C9.65446 34.4857 13.4582 32.7857 15.7107 30.4695C18.707 27.4732 20.832 21.842 25.1032 21.842C29.3532 21.842 31.6057 27.3882 34.4745 30.4695C36.8332 33.062 40.7645 35.2507 40.9132 38.7145Z" fill="#BB6318"/>
</svg>
