<svg width="25" height="25" viewBox="0 0 25 25" fill="none" xmlns="http://www.w3.org/2000/svg">
<path d="M12.5 0C19.4037 0 25 5.59625 25 12.5C25 19.4037 19.4037 25 12.5 25C5.59625 25 0 19.4037 0 12.5C0 5.59625 5.59625 0 12.5 0ZM12.5 17.5C12.1685 17.5 11.8505 17.6317 11.6161 17.8661C11.3817 18.1005 11.25 18.4185 11.25 18.75C11.25 19.0815 11.3817 19.3995 11.6161 19.6339C11.8505 19.8683 12.1685 20 12.5 20C12.8315 20 13.1495 19.8683 13.3839 19.6339C13.6183 19.3995 13.75 19.0815 13.75 18.75C13.75 18.4185 13.6183 18.1005 13.3839 17.8661C13.1495 17.6317 12.8315 17.5 12.5 17.5ZM12.5 5.625C11.2982 5.625 10.1457 6.1024 9.29592 6.95217C8.44615 7.80195 7.96875 8.95449 7.96875 10.1562C7.96875 10.4878 8.10045 10.8057 8.33487 11.0401C8.56929 11.2746 8.88723 11.4062 9.21875 11.4062C9.55027 11.4062 9.86821 11.2746 10.1026 11.0401C10.3371 10.8057 10.4688 10.4878 10.4688 10.1562C10.4692 9.78755 10.5699 9.42591 10.7602 9.11011C10.9505 8.79431 11.2232 8.53627 11.549 8.36365C11.8748 8.19103 12.2414 8.11034 12.6096 8.13024C12.9778 8.15013 13.3336 8.26987 13.6389 8.47659C13.9442 8.68332 14.1875 8.96925 14.3426 9.30371C14.4978 9.63818 14.559 10.0086 14.5197 10.3752C14.4803 10.7418 14.342 11.0908 14.1194 11.3847C13.8968 11.6787 13.5984 11.9065 13.2562 12.0438C12.4112 12.3813 11.25 13.2463 11.25 14.6875V15C11.25 15.3315 11.3817 15.6495 11.6161 15.8839C11.8505 16.1183 12.1685 16.25 12.5 16.25C12.8315 16.25 13.1495 16.1183 13.3839 15.8839C13.6183 15.6495 13.75 15.3315 13.75 15C13.75 14.695 13.8125 14.5425 14.0762 14.4125L14.185 14.3625C15.161 13.9699 15.9701 13.2499 16.4734 12.3261C16.9768 11.4024 17.1431 10.3322 16.9439 9.29923C16.7447 8.26623 16.1923 7.3347 15.3816 6.66434C14.5708 5.99397 13.552 5.62653 12.5 5.625Z" fill="#40444D"/>
</svg>
