<svg width="60" height="60" viewBox="0 0 60 60" fill="none" xmlns="http://www.w3.org/2000/svg">
<circle cx="30" cy="30" r="30" fill="#40444D"/>
<path d="M22.5 32.5H32.5V35H22.5V32.5ZM22.5 26.25H37.5V28.75H22.5V26.25ZM22.5 38.75H28.75V41.25H22.5V38.75Z" fill="white"/>
<path d="M41.25 16.25H37.5V15C37.5 14.337 37.2366 13.7011 36.7678 13.2322C36.2989 12.7634 35.663 12.5 35 12.5H25C24.337 12.5 23.7011 12.7634 23.2322 13.2322C22.7634 13.7011 22.5 14.337 22.5 15V16.25H18.75C18.087 16.25 17.4511 16.5134 16.9822 16.9822C16.5134 17.4511 16.25 18.087 16.25 18.75V45C16.25 45.663 16.5134 46.2989 16.9822 46.7678C17.4511 47.2366 18.087 47.5 18.75 47.5H41.25C41.913 47.5 42.5489 47.2366 43.0178 46.7678C43.4866 46.2989 43.75 45.663 43.75 45V18.75C43.75 18.087 43.4866 17.4511 43.0178 16.9822C42.5489 16.5134 41.913 16.25 41.25 16.25ZM25 15H35V20H25V15ZM41.25 45H18.75V18.75H22.5V22.5H37.5V18.75H41.25V45Z" fill="white"/>
</svg>
