<svg width="60" height="60" viewBox="0 0 60 60" fill="none" xmlns="http://www.w3.org/2000/svg">
<rect width="60" height="60" rx="30" transform="matrix(-1 0 0 1 60 0)" fill="#40444D"/>
<path d="M30.3881 10C31.0431 10 31.6881 10.0425 32.2881 10.1425C32.8793 10.2186 33.4624 10.3475 34.0306 10.5275C34.5973 10.6975 35.159 10.9167 35.7156 11.185C36.2581 11.4425 36.8156 11.7575 37.3731 12.1C38.3156 12.7 39.2431 13.185 40.1881 13.5725C42.048 14.3186 44.0155 14.7617 46.0156 14.885C47.0273 14.96 48.0748 14.9983 49.1581 15V25C49.1581 26.8983 48.9156 28.7033 48.4306 30.415C47.9647 32.1055 47.3027 33.7357 46.4581 35.2725C45.6173 36.8072 44.6221 38.2521 43.4881 39.585C42.3375 40.9488 41.091 42.2287 39.7581 43.415C38.4065 44.6033 36.9848 45.7095 35.5006 46.7275C34.014 47.7608 32.519 48.7133 31.0156 49.585L30.4156 49.9425L29.8156 49.585C28.2735 48.6925 26.7673 47.7392 25.3006 46.7275C23.8086 45.7204 22.3862 44.6137 21.0431 43.415C19.7111 42.2286 18.4655 40.9487 17.3156 39.585C16.1855 38.2459 15.186 36.8018 14.3306 35.2725C13.5013 33.7285 12.84 32.1001 12.3581 30.415C11.8733 28.6512 11.6327 26.8292 11.6431 25V15C12.7265 14.9983 13.7748 14.96 14.7881 14.885C15.7875 14.8171 16.7802 14.6742 17.7581 14.4575C18.7156 14.2425 19.6731 13.9575 20.6156 13.5725C21.5934 13.1773 22.531 12.6892 23.4156 12.115C24.5156 11.4 25.6306 10.8725 26.7306 10.525C27.9154 10.1622 29.1492 9.98512 30.3881 10ZM46.6431 17.4575C44.7508 17.3649 42.8761 17.0485 41.0581 16.515C39.2505 15.9744 37.5284 15.1807 35.9431 14.1575C35.1206 13.619 34.2282 13.1959 33.2906 12.9C32.3536 12.6174 31.3793 12.4775 30.4006 12.485C29.4147 12.479 28.4332 12.6188 27.4881 12.9C26.5495 13.1871 25.6583 13.6108 24.8431 14.1575C23.2546 15.1852 21.5282 15.9823 19.7156 16.525C17.944 17.04 16.0865 17.355 14.1431 17.47V25.0125C14.1431 26.6675 14.3581 28.2575 14.7881 29.7825C15.2266 31.2966 15.8302 32.7579 16.5881 34.14C17.3555 35.5364 18.2599 36.8529 19.2881 38.07C20.3306 39.2975 21.4431 40.44 22.6431 41.525C23.8431 42.61 25.1006 43.615 26.4156 44.54C27.744 45.4667 29.0723 46.3142 30.4006 47.0825C31.7606 46.2922 33.0859 45.4439 34.3731 44.54C35.6984 43.6175 36.9627 42.6104 38.1581 41.525C39.3581 40.44 40.4731 39.2975 41.5156 38.07C42.5439 36.8529 43.4483 35.5364 44.2156 34.14C44.9697 32.7594 45.5644 31.2975 45.9881 29.7825C46.4317 28.2316 46.6522 26.6255 46.6431 25.0125V17.4575Z" fill="white"/>
<path fill-rule="evenodd" clip-rule="evenodd" d="M39.7081 21.7725L38.6081 20.8275L37.5931 20.915L26.6931 33.785L22.9806 28.485L21.9806 28.315L20.8231 29.1425L20.6506 30.1425L25.4231 36.9575L25.9656 37.2575L27.1081 37.3275L27.6931 37.0725L39.7806 22.785L39.7081 21.7725Z" fill="white"/>
</svg>
