<svg width="40" height="40" viewBox="0 0 40 40" fill="none" xmlns="http://www.w3.org/2000/svg">
<path d="M20 5C11.7289 5 5 11.7289 5 20C5 28.2711 11.7289 35 20 35C28.2711 35 35 28.2711 35 20C35 11.7289 28.2711 5 20 5ZM27.1336 27.1336C26.8992 27.3678 26.5814 27.4994 26.25 27.4994C25.9186 27.4994 25.6008 27.3678 25.3664 27.1336L22.0195 23.7875C20.6056 24.7605 18.8791 25.1699 17.1788 24.9355C15.4785 24.701 13.9273 23.8397 12.8294 22.5204C11.7315 21.2011 11.1663 19.5191 11.2446 17.8045C11.323 16.09 12.0393 14.4666 13.2529 13.2529C14.4666 12.0393 16.09 11.323 17.8045 11.2446C19.5191 11.1663 21.2011 11.7315 22.5204 12.8294C23.8397 13.9273 24.701 15.4785 24.9355 17.1788C25.1699 18.8791 24.7605 20.6056 23.7875 22.0195L27.1336 25.3664C27.3678 25.6008 27.4994 25.9186 27.4994 26.25C27.4994 26.5814 27.3678 26.8992 27.1336 27.1336Z" fill="white"/>
<path d="M18.125 22.5C20.5412 22.5 22.5 20.5412 22.5 18.125C22.5 15.7088 20.5412 13.75 18.125 13.75C15.7088 13.75 13.75 15.7088 13.75 18.125C13.75 20.5412 15.7088 22.5 18.125 22.5Z" fill="white"/>
</svg>
