<svg width="28" height="28" viewBox="0 0 28 28" fill="none" xmlns="http://www.w3.org/2000/svg">
<path d="M5.23267 5.67678C5.43889 5.65281 5.64774 5.68566 5.83664 5.77178C6.02555 5.85791 6.18732 5.99402 6.30448 6.16541C7.98566 8.62454 10.004 9.64737 12.2444 9.87973C12.3538 8.92182 12.6123 7.9753 13.0987 7.14155C13.8117 5.91825 14.9712 5.01843 16.6273 4.68584C18.9168 4.22568 20.6594 5.05488 21.6698 6.06974L23.7109 5.68817C23.9244 5.64815 24.145 5.67006 24.3466 5.75132C24.5481 5.83259 24.7222 5.96981 24.8483 6.14679C24.9744 6.32377 25.0472 6.53313 25.0582 6.75016C25.0692 6.96719 25.0178 7.18283 24.9102 7.37163L22.9511 10.8137C23.13 15.781 21.7495 19.2481 18.8063 21.6366C17.2458 22.9032 15.0111 23.6219 12.5588 23.844C10.0871 24.0673 7.29314 23.7973 4.51623 22.9863C4.27896 22.9171 4.07065 22.7726 3.92272 22.5746C3.77479 22.3766 3.69528 22.1359 3.69618 21.8888C3.69708 21.6416 3.77834 21.4014 3.92771 21.2045C4.07708 21.0076 4.28644 20.8646 4.5242 20.7972C5.92063 20.3997 6.98447 20.0568 7.94466 19.4565C6.57898 18.7321 5.57323 17.7845 4.86135 16.7047C3.87269 15.2035 3.50593 13.5291 3.43303 12.0199C3.36013 10.5107 3.57768 9.11204 3.80776 8.10401C3.93875 7.52881 4.09138 6.95247 4.30209 6.40119C4.37642 6.20686 4.50256 6.03661 4.66681 5.9089C4.83106 5.78119 5.02602 5.70091 5.23267 5.67678Z" fill="#202226"/>
</svg>
